<?xml version="1.0" encoding="UTF-8"?>
<svg width="161px" height="106px" viewBox="0 0 161 106" version="1.1" xmlns="http://www.w3.org/2000/svg" xmlns:xlink="http://www.w3.org/1999/xlink">
    <!-- Generator: Sketch 41.1 (35376) - http://www.bohemiancoding.com/sketch -->
    <title>pos_svg_logo</title>
    <desc>Created with Sketch.</desc>
    <defs></defs>
    <g id="Page-4" stroke="none" stroke-width="1" fill="none" fill-rule="evenodd">
        <g id="Artboard" transform="translate(-73.000000, -58.000000)">
            <g id="pos_svg_logo" transform="translate(67.000000, 58.000000)">
                <g id="logo" transform="translate(6.438955, 0.000000)">
                    <g id="Layer_1">
                        <g id="Group">
                            <path d="M12.5115535,4.38824526 L10.0777845,5.85337944 C9.6236025,5.05008173 9.19096929,4.52760141 8.77822726,4.28299137 C8.34973805,4.0051211 7.79568575,3.8645019 7.11855676,3.8645019 C6.28644232,3.8645019 5.59522374,4.1053228 5.04531544,4.58485953 C4.49706473,5.05597595 4.22148898,5.65002892 4.22148898,6.36491335 C4.22148898,7.35177384 4.94254433,8.14496717 6.38424063,8.74659842 L8.36755724,9.5709469 C9.98122938,10.2340464 11.1601963,11.0440804 11.9069444,11.9993647 C12.6536926,12.954649 13.0270666,14.1263353 13.0270666,15.5123186 C13.0270666,17.3715233 12.4178992,18.9065461 11.1999787,20.119913 C9.97086939,21.3408581 8.44836516,21.9504887 6.62997961,21.9504887 C4.90441957,21.9504887 3.47971365,21.4301134 2.35627627,20.3885209 C1.24858607,19.3469284 0.558196295,17.8843203 0.283863743,16.0011177 L3.321413,15.3203355 C3.45857927,16.5067574 3.69934546,17.3268957 4.04246835,17.7807505 C4.66033819,18.6526737 5.56124297,19.0875828 6.7460115,19.0875828 C7.68089706,19.0875828 8.45748195,18.769295 9.0753518,18.1344035 C9.69322164,17.49867 10.0031926,16.6924252 10.0031926,15.7169322 C10.0031926,15.3245456 9.94849181,14.9654194 9.8411623,14.6382903 C9.7342472,14.3115822 9.56641535,14.0113981 9.33932436,13.7364749 C9.11223336,13.4615518 8.81759523,13.2051533 8.45748195,12.9651744 C8.09736868,12.7247745 7.66846507,12.4974261 7.17035672,12.278498 L5.25292965,11.4693061 C2.53239611,10.3009879 1.17192214,8.59334875 1.17192214,6.34638867 C1.17192214,4.82946958 1.74255042,3.56263373 2.88422139,2.54335504 C4.02464916,1.51523503 5.44479668,1.00159604 7.14383514,1.00159604 C9.43587947,1.00159604 11.2252571,2.13075979 12.5115535,4.38824526 L12.5115535,4.38824526 Z" id="Shape" fill="#9D9FA2"></path>
                            <path d="M34.6384215,11.0718674 L42.8505789,11.0718674 L42.8505789,11.737493 C42.8505789,13.2556751 42.6757022,14.5982938 42.3238769,15.7653489 C41.9795109,16.8469379 41.4014234,17.8577963 40.5858849,18.8008712 C38.7409778,20.9101592 36.3929895,21.9648032 33.5435777,21.9648032 C30.763785,21.9648032 28.3818159,20.9434194 26.4009857,18.903599 C24.4176691,16.8553583 23.4276684,14.3974694 23.4276684,11.5290903 C23.4276684,8.59924297 24.4346595,6.11398807 26.4515425,4.07416765 C28.4688399,2.02508488 30.9229144,1.00117502 33.814595,1.00117502 C35.3681792,1.00117502 36.8181635,1.32114685 38.1653767,1.96403762 C39.4529163,2.6069284 40.7193216,3.65020497 41.9637637,5.09386735 L39.8262904,7.17368426 C38.1956279,4.96756268 36.2098249,3.8645019 33.8672238,3.8645019 C31.7637313,3.8645019 30.0008753,4.60212117 28.575755,6.07525464 C27.1510491,7.52270616 26.4395249,9.33602021 26.4395249,11.5160388 C26.4395249,13.764683 27.2322714,15.6171515 28.8206651,17.0730233 C30.305459,18.4249043 31.9141583,19.1010553 33.6484208,19.1010553 C35.1228546,19.1010553 36.4497622,18.5958366 37.6262428,17.5866623 C38.8014801,16.5694887 39.4570603,15.3523327 39.5954698,13.9343522 L34.6388359,13.9343522 L34.6388359,11.0718674 L34.6384215,11.0718674 Z" id="Shape" fill="#9D9FA2"></path>
                            <polygon id="Shape" fill="#9D9FA2" points="46.6232731 21.5854682 46.6232731 0.0202087472 61.1177287 15.4264314 61.1177287 1.39314051 64.1163244 1.39314051 64.1163244 22.8148336 49.6218687 7.44776539 49.6218687 21.5850471 46.6232731 21.5850471"></polygon>
                            <g id="Group-2" transform="translate(67.961539, 0.000000)">
                                <path d="M15.7848961,2.4717824 L15.7848961,6.07567566 C14.0506337,4.60254219 12.2575265,3.86492291 10.4030882,3.86492291 C8.36175564,3.86492291 6.6411684,4.6109625 5.24174086,6.10135761 C3.83485413,7.58417444 3.13078917,9.39748849 3.13078917,11.5421418 C3.13078917,13.6611131 3.83485413,15.4474822 5.24174086,16.903354 C6.64987079,18.3596469 8.37501643,19.0875828 10.416349,19.0875828 C11.4722392,19.0875828 12.3681712,18.9128613 13.1074602,18.5638394 C13.5185446,18.391223 13.9453762,18.1550333 14.3883694,17.8582173 C14.8301194,17.5630854 15.2954902,17.2052222 15.7848961,16.7858907 L15.7848961,20.4672508 C14.0676241,21.4579004 12.2662289,21.9504887 10.3778098,21.9504887 C7.53751479,21.9504887 5.11452018,20.9434194 3.10468199,18.930965 C1.1056182,16.8999859 0.106086304,14.4488333 0.106086304,11.5812962 C0.106086304,9.00931213 0.943587947,6.71646135 2.61734803,4.70232288 C4.67608537,2.23475063 7.34026056,1.00159604 10.610288,1.00159604 C12.3946928,1.00159604 14.1202528,1.49165816 15.7848961,2.4717824 L15.7848961,2.4717824 Z" id="Shape" fill="#ED666A"></path>
                                <polygon id="Shape" fill="#ED666A" points="43.9483235 4.25730942 43.9483235 21.5854682 40.9493134 21.5854682 40.9493134 4.25730942 36.3793143 4.25730942 36.3793143 1.39314051 48.506305 1.39314051 48.506305 4.25730942 43.9483235 4.25730942"></polygon>
                                <path d="M65.1610259,2.4717824 L65.1610259,6.07567566 C63.4280067,4.60254219 61.6357283,3.86492291 59.78129,3.86492291 C57.7391286,3.86492291 56.0172982,4.6109625 54.6191138,6.10135761 C53.2118127,7.58417444 52.5098197,9.39748849 52.5098197,11.5421418 C52.5098197,13.6611131 53.2113983,15.4474822 54.6191138,16.903354 C56.026415,18.3596469 57.7515606,19.0875828 59.7937219,19.0875828 C60.8487834,19.0875828 61.7467874,18.9128613 62.4835899,18.5638394 C62.8963319,18.391223 63.3227492,18.1550333 63.7644992,17.8582173 C64.2074924,17.5630854 64.6728631,17.2052222 65.1610259,16.7858907 L65.1610259,20.4672508 C63.4458258,21.4579004 61.6431875,21.9504887 59.7560116,21.9504887 C56.9144733,21.9504887 54.4910643,20.9434194 52.482055,18.930965 C50.4821624,16.8999859 49.4826305,14.4488333 49.4826305,11.5812962 C49.4826305,9.00931213 50.3197177,6.71646135 51.9934778,4.70232288 C54.0530439,2.23475063 56.7168047,1.00159604 59.9864178,1.00159604 C61.7720658,1.00159604 63.496797,1.49165816 65.1610259,2.4717824 L65.1610259,2.4717824 Z" id="Shape" fill="#ED666A"></path>
                                <polygon id="Shape" fill="#ED666A" points="72.4996289 9.29181358 81.0718995 9.29181358 81.0718995 1.39314051 84.071324 1.39314051 84.071324 21.5850471 81.0718995 21.5850471 81.0718995 12.1559825 72.4996289 12.1559825 72.4996289 21.5850471 69.49979 21.5850471 69.49979 1.39314051 72.4996289 1.39314051"></polygon>
                                <g id="Group" transform="translate(17.404784, 0.000000)">
                                    <polygon id="Shape" points="14.3223115 16.6806368 14.3150207 16.6806368 15.8485323 18.2141694"></polygon>
                                    <polygon id="Shape" points="7.05515362 15.0578157 7.07090585 15.0578157 7.68721191 13.5242831"></polygon>
                                    <polygon id="Shape" fill="#ED666A" points="19.6831534 21.5854682 10.1971316 0.124199592 0.361770873 21.5854682 3.59325915 21.5854682 5.5272622 17.3016348 7.05846882 13.8173099 7.05515362 13.8173099 7.1881759 13.5242831 7.20889588 13.4746032 7.20972468 13.4746032 10.1445028 6.95138804 13.0933706 13.8173099 13.091713 13.8173099 14.3150207 16.6806368 14.3162639 16.6806368 14.5765068 17.2948985 14.6759627 17.5272991 14.6747195 17.5281411 16.3994508 21.5854682"></polygon>
                                    <polygon id="Shape" fill="#C61D23" points="7.2381759 13.4746032 7.1881759 13.5974977 7.2401759 13.4746032"></polygon>
                                    <polygon id="Shape" fill="#C61D23" points="14.5765068 17.2948985 15.0702568 18.8284311 15.0765068 18.8228949"></polygon>
                                </g>
                            </g>
                            <rect id="Rectangle-path" fill="#9D9FA2" x="16.6435322" y="6.04073137" width="2.99859569" height="15.5443158"></rect>
                            <rect id="Rectangle-path" fill="#ED666A" x="16.6435322" y="1.39314051" width="2.99859569" height="3.06120419"></rect>
                        </g>
                    </g>
                </g>
                <g id="Group-3" transform="translate(0.000000, 5.000000)" fill="#009587">
                    <text id="P" font-family="AvenirNext-Bold, Avenir Next" font-size="97.4717284" font-weight="bold">
                        <tspan x="0.309046909" y="97.4345377">P</tspan>
                    </text>
                    <path d="M97.3676667,100.340667 C114.791615,96.5615669 127.825483,81.30747 127.825483,63.064631 C127.825483,44.8217919 114.791615,29.567695 97.3676667,25.7885953 L97.3676667,39.6735648 C107.216213,43.0831504 114.274041,52.3004796 114.274041,63.13621 C114.274041,73.9719404 107.216213,83.1892696 97.3676667,86.5988552 L97.3676667,100.340667 Z M81.471644,25.593839 C63.5711219,29.0138231 50.058842,44.4900046 50.058842,63.064631 C50.058842,81.6392573 63.5711219,97.1154388 81.471644,100.535423 L81.471644,86.9095762 C71.1257823,83.7803007 63.6068171,74.3203267 63.6068171,63.13621 C63.6068171,51.9520933 71.1257823,42.4921193 81.471644,39.3628438 L81.471644,25.593839 Z" id="Combined-Shape"></path>
                    <ellipse id="Oval-27" cx="88.9421624" cy="63.064631" rx="12.9611068" ry="12.7248912"></ellipse>
                </g>
                <text id="S" font-family="AvenirNext-Bold, Avenir Next" font-size="97.4717284" font-weight="bold" fill="#009587">
                    <tspan x="112.197104" y="104">S</tspan>
                </text>
            </g>
        </g>
    </g>
</svg>