<svg xmlns="http://www.w3.org/2000/svg" width="22" height="19" viewBox="0 0 22 19"><title>  delivery</title><desc>  Created with Sketch.</desc><g fill="none"><g fill="#484848"><path d="M20.7 8.3L19.4 8.3 18.9 6.8 20.7 6.8C21.1 6.8 21.5 6.4 21.5 6 21.5 5.6 21.1 5.3 20.7 5.3L18.4 5.3 17.4 2.1C17.1 1.3 16.2 0.7 15.4 0.7L6.2 0.7C5.4 0.7 4.5 1.3 4.2 2.1L3.1 5.3 0.9 5.3C0.4 5.3 0.1 5.6 0.1 6 0.1 6.4 0.4 6.8 0.9 6.8L2.6 6.8 2.1 8.3 0.9 8.3C0.4 8.3 0.1 8.6 0.1 9.1L0.1 13.6C0.1 14 0.4 14.4 0.9 14.4L1.6 14.4 1.6 17.4C1.6 18.3 2.3 18.9 3.1 18.9L4.7 18.9C5.5 18.9 6.2 18.3 6.2 17.4L6.2 14.4 15.4 14.4 15.4 17.4C15.4 18.3 16 18.9 16.9 18.9L18.4 18.9C19.3 18.9 19.9 18.3 19.9 17.4L19.9 14.4 20.7 14.4C21.1 14.4 21.5 14 21.5 13.6L21.5 9.1C21.5 8.6 21.1 8.3 20.7 8.3L20.7 8.3ZM5.6 2.6C5.7 2.4 6 2.2 6.2 2.2L9.3 2.2 9.3 3C9.3 3.4 9.6 3.7 10 3.7L11.5 3.7C12 3.7 12.3 3.4 12.3 3L12.3 2.2 15.4 2.2C15.5 2.2 15.9 2.4 15.9 2.6L17.8 8.3 3.7 8.3 5.6 2.6 5.6 2.6ZM4.7 12.9C3.8 12.9 3.1 12.2 3.1 11.3 3.1 10.5 3.8 9.8 4.7 9.8 5.5 9.8 6.2 10.5 6.2 11.3 6.2 12.2 5.5 12.9 4.7 12.9L4.7 12.9ZM13.8 12.9L7.7 12.9 7.7 11.3 13.8 11.3 13.8 12.9 13.8 12.9ZM16.9 12.9C16 12.9 15.4 12.2 15.4 11.3 15.4 10.5 16 9.8 16.9 9.8 17.7 9.8 18.4 10.5 18.4 11.3 18.4 12.2 17.7 12.9 16.9 12.9L16.9 12.9Z"/></g></g></svg>