<svg xmlns="http://www.w3.org/2000/svg" width="20" height="18" viewBox="0 0 20 18"><title>  dinein</title><desc>  Created with Sketch.</desc><g fill="none"><g fill="#484848"><path d="M4.9 2.3C2.3 0.5 0.2 0.6 0.2 0.6L0.2 0.6C0.1 0.6 0.1 0.6 0 0.7 -0.1 0.7-0.1 0.8 0 0.9 0 0.9 0 0.9 0 0.9L0 0.9 7.1 8C7.1 8.1 7.2 8.1 7.2 8.1L7.4 8.3 7.9 8.8 9 7.6C8.6 6 6.4 3.5 4.9 2.3L4.9 2.3Z"/><path d="M16.9 17.8L17.4 17.7C17.5 17.6 17.6 17.6 17.7 17.5L18 17.2C18.1 17.1 18.1 17 18.2 16.9L18.2 16.4C18.3 16.3 18.2 16.2 18.1 16.1L11.8 10.3 10.6 11.5 16.5 17.7C16.6 17.8 16.8 17.8 16.9 17.8Z"/><path d="M19.1 2.3L19.1 2.3C19 2.2 18.9 2.2 18.8 2.3L15.1 6.1C15 6.1 14.9 6.1 14.8 6.1 14.7 6 14.7 5.9 14.8 5.8L18.4 2C18.5 1.9 18.5 1.8 18.4 1.7L18.4 1.7C18.3 1.6 18.2 1.6 18.1 1.7L14.2 5.5C14.1 5.5 14 5.5 13.9 5.5 13.9 5.4 13.9 5.3 13.9 5.2L17.7 1.2C17.8 1.1 17.8 1 17.7 0.9L17.7 0.9C17.6 0.9 17.5 0.8 17.4 0.9L13.6 4.6C13.5 4.7 13.4 4.7 13.3 4.6 13.2 4.5 13.2 4.4 13.3 4.3L17.1 0.6C17.1 0.5 17.1 0.4 17.1 0.3L17 0.3C17 0.2 16.8 0.2 16.8 0.3L13 4C12.9 4 12.8 4.2 12.7 4.3L11.8 6C11.8 6.1 11.7 6.3 11.6 6.3L9.7 8.3 8.5 9.4 2.4 15.5C2.3 15.5 2.2 15.7 2.3 15.8L2.4 16.3C2.4 16.4 2.5 16.5 2.6 16.6L2.9 16.9C2.9 17 3.1 17 3.2 17.1L3.6 17.2C3.7 17.2 3.9 17.1 3.9 17L9.9 10.9 11.1 9.7 13.1 7.7C13.1 7.6 13.3 7.5 13.4 7.5L15.1 6.7C15.2 6.6 15.3 6.5 15.4 6.4L19.1 2.6C19.1 2.5 19.1 2.4 19.1 2.3L19.1 2.3Z"/></g></g></svg>