<svg xmlns="http://www.w3.org/2000/svg" width="35" height="32" viewBox="0 0 35 32"><title>  error</title><desc>  Created with Sketch.</desc><g fill="none"><g fill="#F39F33"><path d="M34.2 26.4L0.8 26.4C0.4 26.4 0 26.1 0 25.6L0 0.8C0 0.3 0.4 0 0.8 0L34.2 0C34.6 0 35 0.3 35 0.8L35 25.6C35 26.1 34.6 26.4 34.2 26.4ZM1.6 24.9L33.4 24.9 33.4 1.6 1.6 1.6 1.6 24.9Z"/><path d="M21.2 31.6L13.8 31.6C13.4 31.6 13.1 31.2 13.1 30.8L13.1 25.6C13.1 25.2 13.4 24.9 13.8 24.9L21.2 24.9C21.6 24.9 21.9 25.2 21.9 25.6L21.9 30.8C21.9 31.2 21.6 31.6 21.2 31.6ZM14.6 30L20.4 30 20.4 26.4 14.6 26.4 14.6 30Z"/><rect x="4.4" y="30" width="26.1" height="1.6"/><path d="M30.6 3.6L4.4 3.6C4 3.6 3.7 4 3.7 4.4L3.7 22C3.7 22.4 4 22.8 4.4 22.8L30.6 22.8C31 22.8 31.3 22.4 31.3 22L31.3 4.4C31.3 4 31 3.6 30.6 3.6ZM24.3 18.9L23.2 20 17.5 14.3 11.8 20 10.7 18.9 16.4 13.2 10.7 7.5 11.8 6.4 17.5 12.1 23.2 6.4 24.3 7.5 18.6 13.2 24.3 18.9Z"/></g></g></svg>