<svg xmlns="http://www.w3.org/2000/svg" width="16" height="22" viewBox="0 0 16 22"><title>  pickup</title><desc>  Created with Sketch.</desc><g fill="none"><g fill="#484848"><path d="M4.1 4.2C3.8 3.8 3.1 3.6 2.6 3.8L2.2 4C1.7 4.2 1.4 3.9 1.5 3.4L2.2 1.2C2.4 0.6 2.9 0.3 3.5 0.4L12.1 2.4C12.6 2.5 12.8 3 12.6 3.5L11.8 5.1C11.5 5.6 11 5.6 10.6 5.3L10.3 5C10 4.6 9.3 4.5 8.8 4.8L8.8 4.8C8.3 5.1 7.6 5.1 7.3 4.6 6.9 4.2 6.2 4.1 5.7 4.4L5.5 4.6C5 4.8 4.4 4.7 4.1 4.2L4.1 4.2 4.1 4.2Z"/><path d="M15.7 13.3C15.6 12.7 15.4 11.9 15.2 11.4L14.7 10.2C14.4 9.7 14.1 8.9 14 8.3L13.6 5.8C13.5 5.2 13.4 5.2 13.3 5.8L13 9.3C12.9 9.9 12.9 10.3 12.8 10.4 12.8 10.4 12.6 10.8 12.4 11.3L12.3 11.6C12 12.1 11.9 12.9 11.9 13.5L11.9 17.9C11.9 18.5 12.3 18.6 12.6 18.2 12.6 18.2 12.9 17.9 13.7 17.9 14.1 17.9 14.6 18.1 15 18.4 15.2 18.5 15.2 18.7 15.1 18.9 15 19 14.7 19.1 14.6 19L14.2 18.7C14 18.7 13.3 18.9 12.9 19.2 12.9 19.2 12.3 19.6 12.1 20.1L12 20.2C12 20.3 11.9 20.4 11.8 20.6 11.8 20.6 11.8 20.6 11.6 20.6 11.6 20.6 11.6 20.6 11.5 20.6L11.4 20.5C11.3 20.4 11.3 19.8 11.2 19.2L11.2 13.4C11.2 12.9 11.1 12.4 11.1 12.4 11.2 12.3 11.4 11.8 11.6 11.3L11.7 11.1C12 10.6 12.2 9.7 12.3 9.2L12.6 5.5C12.7 4.9 12.5 4.9 12.3 5.4L11.9 6.3C11.6 6.8 11.1 6.9 10.7 6.5L10.2 5.9C9.8 5.5 9.1 5.5 8.6 5.8L8.6 5.8C8.1 6.1 7.4 6 7.1 5.6 6.7 5.2 6 5.1 5.5 5.3L5.3 5.5C4.8 5.7 4.2 5.6 3.9 5.2 3.6 4.7 3.2 4.8 3.1 5.4L2.8 7.2C2.6 7.7 2.2 8.5 1.9 8.9L1.6 9.3C1.2 9.7 0.9 10.5 0.9 11.1L0.6 16.9C0.6 17.5 1 18.1 1.5 18.3L10.2 21.4C10.7 21.6 11.6 21.6 12.1 21.3L15.2 19.8C15.7 19.6 16 19 16 18.4L15.7 13.3 15.7 13.3Z"/></g></g></svg>